<svg id="Layer_2" data-name="Layer 2" xmlns="http://www.w3.org/2000/svg" viewBox="0 0 352.53 366.26"><defs><style>.cls-1,.cls-2,.cls-3,.cls-4,.cls-5{fill:none;stroke-miterlimit:10;stroke-width:7px;}.cls-1{stroke:#c1272d;}.cls-2{stroke:#009245;}.cls-3{stroke:#fbb03b;}.cls-4{stroke:#29abe2;}.cls-5{stroke:#39b54a;}</style></defs><title>sparc-flat-map</title><path class="cls-1" d="M266,340c8.27,5.38,15.16,6.76,20,7,6.11.3,8.35-1.24,18-1,7.92.2,8.9,1.3,14,1,4.28-.25,10.51-1.45,18-6" transform="translate(-129.51 -78.37)"/><path class="cls-1" d="M253,331a69.81,69.81,0,0,0,20-10c9.28-6.74,12.36-12.65,18-12,6.46.74,7.85,9.11,14,9,5.2-.09,5.73-6.1,11-7,9.88-1.69,18.85,17.56,25,15,2.23-.93,2.85-4.21,3-5,1.14-6-5.4-9.29-5-16,0-.63.33-4.53,3-7,5.47-5.06,14.17,2.12,27,0,1.31-.22,12.64-2.23,18-10,6.23-9,1.28-21.35-2-33-1.2-4.25-17.5-35.5-33.5-72.5s-42-71.44-39-72" transform="translate(-129.51 -78.37)"/><path class="cls-2" d="M253,333c17.56-6.82,28.3-5.63,35-3,2.91,1.14,8.61,3.95,16,3,4.94-.64,7.49-2.54,11-4,5.27-2.19,13.47-3.67,26,0" transform="translate(-129.51 -78.37)"/><path class="cls-3" d="M296,279a19.81,19.81,0,0,1,24,2" transform="translate(-129.51 -78.37)"/><path class="cls-3" d="M344,279a17.8,17.8,0,0,1,13-5,17.23,17.23,0,0,1,10,4" transform="translate(-129.51 -78.37)"/><path class="cls-1" d="M259,202c-3.15,3.94-23.86,29-60,31-36.9,2.07-60.57-21.47-64-25" transform="translate(-129.51 -78.37)"/><path class="cls-4" d="M261,190c-5.46-4.89-27.9-23.85-62-24-38.28-.16-62.57,23.52-67,28" transform="translate(-129.51 -78.37)"/><path class="cls-1" d="M245,152a104.12,104.12,0,0,0-109,5" transform="translate(-129.51 -78.37)"/><ellipse cx="187.95" cy="198.63" rx="11.53" ry="3.06" transform="translate(-172.25 267.11) rotate(-79.06)"/><path class="cls-3" d="M364,94a104.13,104.13,0,0,1,106,5" transform="translate(-129.51 -78.37)"/><ellipse cx="281.99" cy="46.63" rx="2.5" ry="11"/><path class="cls-3" d="M396,106c5.65-4.17,18.43-12.36,36-13,16.62-.61,42,5.38,46,20,5.16,19-28.13,45-47,44a54.28,54.28,0,0,1-23.68-7.42c-1-.63-1.78-1.19-2.32-1.58" transform="translate(-129.51 -78.37)"/><path class="cls-2" d="M411,146a144.9,144.9,0,0,0,34-12c5-2.5,24.42-12.23,23-17-1-3.27-10.81-.91-40-3a249.47,249.47,0,0,1-26.59-3.21c-5.59-1-10.2-2-13.41-2.79" transform="translate(-129.51 -78.37)"/><path class="cls-1" d="M400,115c-.24.39-5.76,9.69-1,18a14.43,14.43,0,0,0,9,7c7.46,1.68,13.23-4.19,14-5,6.45-6.78,4.18-16.3,4-17" transform="translate(-129.51 -78.37)"/><path class="cls-4" d="M247,199a141.92,141.92,0,0,0-112-3" transform="translate(-129.51 -78.37)"/><path class="cls-5" d="M133,201q8.73,3.06,18,6,10.22,3.24,20,6" transform="translate(-129.51 -78.37)"/><path class="cls-4" d="M202,214a151.32,151.32,0,0,0,24-5,152.6,152.6,0,0,0,19-7" transform="translate(-129.51 -78.37)"/><path class="cls-3" d="M176,191a23.93,23.93,0,0,0-3,13c.07,1.07,1.07,13.55,9,16,5.44,1.68,10.84-2.38,13-4a23.08,23.08,0,0,0,8-12,26.54,26.54,0,0,0,1-11" transform="translate(-129.51 -78.37)"/><path class="cls-4" d="M196,415a273.51,273.51,0,0,0,42,17c23.52,7.33,36.46,11.19,53,8,5.93-1.14,28.87-5.57,39-24,6.32-11.5,6.07-25.58,6-28-.33-11.35-3.79-13.07-2-21,2.43-10.79,10.08-13.18,11-23,.57-6.13-1.82-11.42-4-15" transform="translate(-129.51 -78.37)"/></svg>