<svg id="Layer_2" data-name="Layer 2" xmlns="http://www.w3.org/2000/svg" viewBox="0 0 369.5 341"><defs><style>.cls-1,.cls-2,.cls-3,.cls-4,.cls-5,.cls-6,.cls-7{fill:none;stroke-linecap:round;stroke-miterlimit:10;stroke-width:7px;}.cls-1{stroke:#c1272d;}.cls-2,.cls-3,.cls-5,.cls-6{stroke:#fbb03b;}.cls-3{stroke-dasharray:11.9 11.9;}.cls-4{stroke:#0071bc;}.cls-5{stroke-dasharray:13.79 13.79;}.cls-6{stroke-dasharray:13.8 13.8;}.cls-7{stroke:#009245;}</style></defs><title>sparc-scaffold-map</title><line class="cls-1" x1="227.5" y1="20.55" x2="26.85" y2="3.5"/><line class="cls-2" x1="195.5" y1="182.55" x2="200.42" y2="186.8"/><line class="cls-3" x1="209.44" y1="194.57" x2="295.07" y2="268.42"/><line class="cls-2" x1="299.58" y1="272.31" x2="304.5" y2="276.55"/><line class="cls-4" x1="366" y1="82.05" x2="304.5" y2="276.55"/><line class="cls-2" x1="228" y1="21.05" x2="226.72" y2="27.42"/><line class="cls-5" x1="224" y1="40.95" x2="198.14" y2="169.42"/><line class="cls-2" x1="196.78" y1="176.18" x2="195.5" y2="182.55"/><line class="cls-1" x1="227.5" y1="20.55" x2="365.5" y2="81.55"/><line class="cls-4" x1="365.5" y1="81.55" x2="178.5" y2="105.55"/><line class="cls-4" x1="304.5" y1="276.55" x2="133.85" y2="337.5"/><line class="cls-2" x1="195.5" y1="182.55" x2="189.03" y2="183.12"/><line class="cls-6" x1="175.28" y1="184.34" x2="17.19" y2="198.32"/><line class="cls-2" x1="10.32" y1="198.93" x2="3.85" y2="199.5"/><line class="cls-7" x1="28.56" y1="4.06" x2="178.5" y2="105.55"/><line class="cls-7" x1="25" y1="5.05" x2="3.5" y2="199.55"/><line class="cls-7" x1="3.5" y1="199.55" x2="131.5" y2="336.55"/><line class="cls-4" x1="179" y1="106.05" x2="132" y2="337.05"/></svg>