<svg id="Layer_2" data-name="Layer 2" xmlns="http://www.w3.org/2000/svg" viewBox="0 0 277.12 148.73"><defs><style>.cls-1,.cls-2,.cls-3,.cls-4,.cls-5,.cls-6,.cls-7,.cls-8,.cls-9{fill:none;stroke:#000;}.cls-1,.cls-2,.cls-3,.cls-4,.cls-5,.cls-6,.cls-7,.cls-8{stroke-miterlimit:10;}.cls-1,.cls-7{stroke-width:4px;}.cls-2{stroke-width:12px;}.cls-3{stroke-width:6px;}.cls-4{stroke-width:13px;}.cls-5{stroke-width:5px;}.cls-6{stroke-width:10px;}.cls-7{stroke-linecap:round;}.cls-8,.cls-9{stroke-width:3px;}.cls-9{stroke-linecap:square;stroke-linejoin:bevel;}</style></defs><title>sparc-simulation-map</title><path d="M424.8,135.7a4.7,4.7,0,0,1,1,1.5c1.14,2.63,0,6.07-2.09,8-2.43,2.31-7.1,3.51-9.54,1.06s-1.87-6.61,1.06-9.54S422.46,133.35,424.8,135.7Z" transform="translate(-149.16 -127.95)"/><ellipse cx="351.5" cy="264" rx="7.5" ry="6" transform="translate(-232.89 197.92) rotate(-45)"/><path d="M424,136c.69-1.62-4.69-7.4-11-8-9.78-.93-17.92,11-20,14-7.76,11.34-5.74,19.71-10,46-6,37-5,29-9,50h0s-3,25-10,33c-1.32,1.51-7.13,2.45-9,2-1.24-.29-2.28-.84-5-3-3.7-2.94-4.67-4.22-5-4-.59.39.47,5.75,4,8,11,7,19.59-.91,26-10,1-1.45,3.23-3.51,6-16,3-13.55,3.67-15.95,6-27,3.3-15.6,8-49,10-58,1-4.35,2-8,4-16,1-3.95,2.16-5.4,4-7,2.24-1.94,4.75-2.42,8-3C420,135.75,423.5,137.17,424,136Z" transform="translate(-149.16 -127.95)"/><line class="cls-1" x1="114.84" y1="97.05" x2="137.84" y2="97.05"/><line class="cls-1" x1="158.84" y1="97.05" x2="175.84" y2="97.05"/><line class="cls-2" x1="125.84" y1="98.05" x2="144.84" y2="136.05"/><line class="cls-3" x1="167.84" y1="97.05" x2="144.84" y2="143.05"/><line class="cls-4" x1="5.84" y1="22.05" x2="57.84" y2="128.05"/><line class="cls-5" x1="111.84" y1="22.05" x2="57.84" y2="128.05"/><line class="cls-6" x1="5.84" y1="22.05" x2="111.84" y2="22.05"/><line class="cls-7" x1="129.34" y1="75.55" x2="175.34" y2="75.55"/><line class="cls-7" x1="169.84" y1="65.05" x2="175.84" y2="75.05"/><line class="cls-7" x1="165.84" y1="83.05" x2="175.84" y2="75.05"/><line class="cls-7" x1="213.84" y1="67.05" x2="258.84" y2="67.05"/><line class="cls-3" x1="121.84" y1="97.05" x2="144.84" y2="143.05"/><path class="cls-8" d="M290.5,267.5" transform="translate(-149.16 -127.95)"/><path class="cls-8" d="M294.5,274.5" transform="translate(-149.16 -127.95)"/><path class="cls-9" d="M293.5,272.5" transform="translate(-149.16 -127.95)"/><path class="cls-9" d="M286.5,259.5" transform="translate(-149.16 -127.95)"/><line class="cls-5" x1="145.34" y1="130.05" x2="145.34" y2="144.05"/></svg>